<svg version="1.1" id="Layer_1" xmlns="http://www.w3.org/2000/svg" xmlns:xlink="http://www.w3.org/1999/xlink" x="0px" y="0px"
	 width="100%" viewBox="0 0 512 464" enable-background="new 0 0 512 464" xml:space="preserve">
<path fill="#000000" opacity="1.000000" stroke="none" 
	d="
M37.780643,267.127045 
	C41.782841,246.385361 47.453419,226.595566 55.789761,207.619537 
	C56.695972,205.556732 56.920235,203.466660 56.590740,201.275986 
	C53.015625,177.506775 51.875340,153.690720 53.489697,129.637817 
	C55.348866,101.937477 60.273640,74.919403 68.769821,48.535580 
	C71.013176,41.569103 73.598839,34.704288 76.253021,27.880592 
	C80.788589,16.220022 90.392693,11.765636 102.444122,16.136860 
	C120.693314,22.756098 137.733688,31.880220 153.865097,42.615070 
	C171.119705,54.097370 187.237473,66.986687 200.725082,82.879486 
	C202.807983,85.333824 204.949188,85.880112 208.176117,85.148468 
	C227.826187,80.693176 247.639008,77.147285 267.900330,77.798416 
	C285.549652,78.365593 303.048828,80.520813 320.211853,84.734795 
	C325.340820,85.994102 328.678711,85.114647 332.392731,81.037254 
	C359.263428,51.537617 391.913757,30.470268 429.088226,16.346346 
	C441.574982,11.602169 450.968140,16.112122 455.881165,28.590401 
	C466.413544,55.340965 473.273529,82.991463 476.449249,111.589691 
	C479.791351,141.686401 479.439789,171.681854 474.713074,201.598709 
	C474.400482,203.577103 474.808746,205.217468 475.548676,206.888504 
	C485.790161,230.017059 492.323669,254.212814 495.831146,279.200104 
	C498.190552,296.008484 499.482849,312.931580 499.344543,329.936829 
	C499.308838,334.328003 496.908295,337.411163 494.071686,340.327362 
	C476.606293,358.282898 457.754364,374.646393 437.496582,389.373138 
	C404.012848,413.714722 368.429535,433.990875 328.464996,445.881073 
	C307.766754,452.039185 286.661346,455.931396 265.106781,455.770111 
	C233.444763,455.533173 203.179169,448.142792 174.082733,435.750458 
	C124.810287,414.764984 82.545097,383.665222 43.930389,346.958374 
	C35.582912,339.023346 31.849077,331.080872 32.447918,319.581146 
	C33.357166,302.120483 34.973568,284.798279 37.780643,267.127045 
M125.854797,81.633224 
	C115.248528,68.895218 104.140854,56.668655 90.913757,46.382614 
	C78.143318,66.713844 66.065811,160.734207 74.283470,173.546646 
	C78.597214,168.062775 82.858498,162.536484 87.245224,157.111649 
	C89.704185,154.070770 92.959351,152.508270 96.931793,153.167953 
	C105.227783,154.545624 107.598419,162.806213 101.704758,170.044510 
	C93.051163,180.672409 85.257607,191.855682 79.151810,204.156525 
	C78.531471,205.406281 77.263443,206.583832 78.091766,208.177841 
	C79.241478,208.880920 80.088173,208.204254 80.956413,207.771698 
	C113.447899,191.584778 147.411880,180.467026 183.896042,178.328598 
	C199.724426,177.400879 215.441467,178.799606 229.340881,187.026245 
	C253.637405,201.406677 263.350494,227.934357 244.856506,253.800186 
	C239.303864,261.566162 232.766388,268.410522 225.637695,274.745453 
	C210.409637,288.277893 193.759720,299.956329 177.359970,311.959259 
	C161.351837,323.675537 145.359985,335.395935 131.755249,349.991119 
	C125.764809,356.417725 120.729805,363.474335 118.832001,372.179932 
	C117.813805,376.850555 117.020187,382.090179 121.910378,385.359619 
	C148.481735,403.124298 176.531265,417.954010 207.198959,427.405334 
	C235.906616,436.252533 265.174622,439.477722 294.931458,434.463623 
	C336.933838,427.386078 374.336578,409.199341 409.499084,385.850494 
	C411.644409,384.425964 412.501160,382.578613 412.770782,380.056946 
	C413.850769,369.956512 409.365082,361.935150 403.367859,354.523285 
	C393.540558,342.377991 381.415924,332.724396 369.116241,323.261566 
	C349.840332,308.431427 329.258362,295.343872 310.813324,279.402100 
	C300.689423,270.652191 291.028290,261.513885 284.015320,249.956314 
	C279.150940,241.939682 275.836761,233.129166 277.071838,223.867279 
	C279.675537,204.341675 291.302612,191.229446 309.203949,183.866165 
	C326.397003,176.794235 344.484924,177.544434 362.377106,179.971024 
	C387.067413,183.319565 410.793915,190.451065 433.619873,200.464874 
	C440.693420,203.568069 447.651581,206.934250 455.386536,210.515182 
	C452.411957,203.411575 448.946320,197.567917 445.313385,191.818542 
	C440.411652,184.061264 434.872040,176.772186 429.191589,169.568970 
	C425.386627,164.744019 425.980621,159.081039 430.151703,155.736130 
	C434.350647,152.368866 439.987915,152.952820 444.021973,157.338226 
	C445.934906,159.417801 447.634155,161.700653 449.353516,163.949997 
	C452.138458,167.593292 454.860199,171.284851 458.331665,175.921814 
	C461.455872,130.820786 456.407776,88.153366 441.287903,46.048634 
	C418.994415,64.596985 401.114166,85.419624 386.442108,108.864075 
	C387.982910,111.286125 390.080536,112.048553 391.884674,113.189735 
	C396.843994,116.326675 398.424622,121.251839 395.979980,126.006088 
	C393.486847,130.854706 388.120148,132.517593 382.713806,130.030457 
	C380.748993,129.126572 378.879028,128.017136 376.962250,127.008194 
	C334.131165,104.463150 289.025757,92.966537 240.370712,99.298309 
	C209.896179,103.264137 180.869720,111.908325 153.973358,127.096596 
	C151.658615,128.403717 149.333801,129.801071 146.843491,130.667404 
	C141.076904,132.673538 135.208542,128.533920 134.654358,122.487015 
	C134.164825,117.145485 137.093994,113.950180 141.336746,111.816803 
	C145.101334,109.923866 144.943329,107.912285 142.795929,104.791771 
	C137.503372,97.100822 132.159058,89.456795 125.854797,81.633224 
M183.268219,257.583649 
	C183.724533,264.300873 187.012177,267.927307 192.389374,267.644684 
	C197.127136,267.395660 200.987549,262.691406 200.555435,257.508972 
	C198.718918,235.483643 179.640488,222.545319 160.809235,226.275162 
	C145.708160,229.266190 133.458557,244.002228 134.357864,258.693176 
	C134.670883,263.806702 137.627670,267.261658 142.013245,267.638397 
	C146.694946,268.040527 150.418839,265.034271 151.480179,259.942078 
	C151.648132,259.136292 151.601624,258.287323 151.675583,257.460236 
	C152.290192,250.585968 156.031998,246.168274 162.415909,243.856918 
	C169.925232,241.138107 181.118103,244.928635 183.268219,257.583649 
M356.253967,246.614532 
	C366.673920,240.286972 378.222229,244.146942 381.097839,254.970444 
	C381.693390,257.212097 381.715210,259.628815 382.474213,261.799530 
	C383.885498,265.835510 386.810120,268.180573 391.251007,267.580139 
	C395.538879,267.000427 398.114319,264.309113 398.616669,259.998138 
	C399.004242,256.672577 398.556763,253.371216 397.595184,250.133575 
	C392.843262,234.133881 377.380157,224.085159 361.091095,226.452286 
	C345.154785,228.768127 332.990051,242.478806 333.121887,257.975952 
	C333.168671,263.476074 336.019989,267.223602 340.468842,267.632141 
	C345.370789,268.082275 348.883850,264.965881 349.730194,259.302216 
	C350.434204,254.591080 351.656738,250.164017 356.253967,246.614532 
z"/>
<path fill="#000000" opacity="1.000000" stroke="none" 
	d="
M198.617218,341.143555 
	C219.266846,348.185516 237.641907,345.380554 253.645233,330.573547 
	C258.044952,326.502747 257.811584,324.758972 252.760590,321.580475 
	C245.008194,316.702118 237.223480,311.845215 231.493469,304.455261 
	C222.759079,293.190582 226.340378,279.706329 239.462082,274.190826 
	C243.817627,272.360046 248.409485,271.507446 253.029221,271.209320 
	C265.971527,270.374084 278.988220,269.511566 291.603638,273.579132 
	C307.334381,278.651245 311.375916,293.843353 300.446106,306.290710 
	C294.763245,312.762634 287.402405,317.056122 280.301514,321.682343 
	C275.207916,325.000824 274.965881,326.257538 279.310150,330.313568 
	C294.388336,344.391418 311.860779,348.154968 331.515076,342.119171 
	C333.421234,341.533783 335.283112,340.790009 337.209015,340.285950 
	C342.620758,338.869629 347.463165,341.105438 349.111237,345.691071 
	C350.915466,350.711212 349.059357,356.632782 343.839874,358.060150 
	C337.293732,359.850311 334.896881,364.463440 332.235565,369.746185 
	C321.867126,390.327576 304.586151,401.577240 282.253540,405.287506 
	C263.319397,408.433136 244.904587,406.831696 227.451492,398.000763 
	C212.933838,390.655060 203.314880,378.963959 197.031250,364.300049 
	C195.940125,361.753754 194.541931,360.014557 191.957550,359.327545 
	C183.957275,357.200714 182.641464,350.806396 184.034515,346.018616 
	C185.569031,340.744629 191.133743,338.923889 198.617218,341.143555 
M254.820557,370.312317 
	C248.276276,372.562378 242.065598,375.408203 236.430588,379.828186 
	C249.176422,390.292847 286.645447,389.266510 295.290894,379.581940 
	C283.170349,371.402527 270.646423,365.735809 254.820557,370.312317 
z"/>
</svg>